<svg xmlns="http://www.w3.org/2000/svg" xmlns:se="http://svg-edit.googlecode.com" xmlns:xlink="http://www.w3.org/1999/xlink" xmlns:dc="http://purl.org/dc/elements/1.1/" xmlns:cc="http://creativecommons.org/ns#" xmlns:rdf="http://www.w3.org/1999/02/22-rdf-syntax-ns#" xmlns:inkscape="http://www.inkscape.org/namespaces/inkscape" width="777" height="480" style="">
                                    <title>my vector image</title>
                                    <!-- Created with Vector Paint - http://www.vectorpaint.yaks.com/ https://chrome.google.com/webstore/detail/hnbpdiengicdefcjecjbnjnoifekhgdo -->
                                    <rect id="backgroundrect" width="100%" height="100%" x="0" y="0" fill="#FFFFFF" stroke="none"/>
                                <g style="" class="currentLayer"><title>Layer 1</title><path fill="#ffffff" fill-opacity="1" stroke="#000000" stroke-opacity="1" stroke-width="11" stroke-dasharray="none" stroke-linejoin="miter" stroke-linecap="butt" stroke-dashoffset="" fill-rule="nonzero" opacity="1" marker-start="" marker-mid="" marker-end="" d="M536.3243363445627,431.59458088874817 C536.3243363445627,420.5747209688576 545.250422879674,411.64863443374634 556.2702827995645,411.64863443374634 C567.2901427194549,411.64863443374634 576.2162292545663,420.5747209688576 576.2162292545663,431.59458088874817 C576.2162292545663,442.61444080863873 567.2901427194549,451.54052734375 556.2702827995645,451.54052734375 C545.250422879674,451.54052734375 536.3243363445627,442.61444080863873 536.3243363445627,431.59458088874817 z" class="" id="svg_12"/><path fill="#ffffff" fill-opacity="1" stroke="#000000" stroke-opacity="1" stroke-width="11" stroke-dasharray="none" stroke-linejoin="miter" stroke-linecap="butt" stroke-dashoffset="" fill-rule="nonzero" opacity="1" marker-start="" marker-mid="" marker-end="" d="M280.108119303547,345.6486351490021 C280.108119303547,334.6287752291115 289.0342058386584,325.70268869400024 300.05406575854886,325.70268869400024 C311.0739256784393,325.70268869400024 320.0000122135507,334.6287752291115 320.0000122135507,345.6486351490021 C320.0000122135507,356.66849506889264 311.0739256784393,365.5945816040039 300.05406575854886,365.5945816040039 C289.0342058386584,365.5945816040039 280.108119303547,356.66849506889264 280.108119303547,345.6486351490021 z" class="" id="svg_13"/><path fill="#ffffff" fill-opacity="1" stroke="#000000" stroke-opacity="1" stroke-width="11" stroke-dasharray="none" stroke-linejoin="miter" stroke-linecap="butt" stroke-dashoffset="" fill-rule="nonzero" opacity="1" marker-start="" marker-mid="" marker-end="" d="M383.35135965999234,172.13511872291565 C383.35135965999234,161.11525880302509 392.2774461951037,152.18917226791382 403.29730611499417,152.18917226791382 C414.3171660348846,152.18917226791382 423.243252569996,161.11525880302509 423.243252569996,172.13511872291565 C423.243252569996,183.1549786428062 414.3171660348846,192.08106517791748 403.29730611499417,192.08106517791748 C392.2774461951037,192.08106517791748 383.35135965999234,183.1549786428062 383.35135965999234,172.13511872291565 z" class="" id="svg_14"/><path fill="#ffffff" fill-opacity="1" stroke="#000000" stroke-opacity="1" stroke-width="11" stroke-dasharray="none" stroke-linejoin="miter" stroke-linecap="butt" stroke-dashoffset="" fill-rule="nonzero" opacity="1" marker-start="" marker-mid="" marker-end="" d="M590.3783772533761,105.64863514900208 C590.3783772533761,94.62877522911151 599.3044637884875,85.70268869400024 610.324323708378,85.70268869400024 C621.3441836282684,85.70268869400024 630.2702701633798,94.62877522911151 630.2702701633798,105.64863514900208 C630.2702701633798,116.66849506889264 621.3441836282684,125.5945816040039 610.324323708378,125.5945816040039 C599.3044637884875,125.5945816040039 590.3783772533761,116.66849506889264 590.3783772533761,105.64863514900208 z" class="" id="svg_15"/><path fill="#ffffff" fill-opacity="1" stroke="#000000" stroke-opacity="1" stroke-width="11" stroke-dasharray="none" stroke-linejoin="miter" stroke-linecap="butt" stroke-dashoffset="" fill-rule="nonzero" opacity="1" marker-start="" marker-mid="" marker-end="" d="M695.2432587688791,306.72970032691956 C695.2432587688791,295.709840407029 704.1693453039904,286.7837538719177 715.1892052238809,286.7837538719177 C726.2090651437713,286.7837538719177 735.1351516788827,295.709840407029 735.1351516788827,306.72970032691956 C735.1351516788827,317.7495602468101 726.2090651437713,326.6756467819214 715.1892052238809,326.6756467819214 C704.1693453039904,326.6756467819214 695.2432587688791,317.7495602468101 695.2432587688791,306.72970032691956 z" class="" id="svg_16"/><path fill="#ffffff" fill-opacity="1" stroke="#000000" stroke-opacity="1" stroke-width="1" stroke-dasharray="none" stroke-linejoin="miter" stroke-linecap="butt" stroke-dashoffset="" fill-rule="nonzero" opacity="1" marker-start="" marker-mid="" marker-end="" d="M254,294 C254,294 254,294 254,294 C254,294 254,294 254,294 C254,294 254,294 254,294 C254,294 254,294 254,294 Z" id="svg_3"/><path fill="#ffffff" fill-opacity="1" stroke="#000000" stroke-opacity="1" stroke-width="11" stroke-dasharray="none" stroke-linejoin="miter" stroke-linecap="butt" stroke-dashoffset="" fill-rule="nonzero" opacity="1" marker-start="" marker-mid="" marker-end="" d="M312.4432497740662,326.91890810735924L391.3621676759183,191.24323418020253" id="svg_17"/><path fill="#ffffff" fill-opacity="1" stroke="#000000" stroke-opacity="1" stroke-width="11" stroke-dasharray="none" stroke-linejoin="miter" stroke-linecap="butt" stroke-dashoffset="" fill-rule="nonzero" opacity="1" marker-start="" marker-mid="" marker-end="" d="M424.87568075752665,164.21620750148608L589.7405434976972,113.40539734549913" id="svg_19"/><path fill="#ffffff" fill-opacity="1" stroke="#000000" stroke-opacity="1" stroke-width="11" stroke-dasharray="none" stroke-linejoin="miter" stroke-linecap="butt" stroke-dashoffset="" fill-rule="nonzero" opacity="1" marker-start="" marker-mid="" marker-end="" d="M628.1189213814746,120.43242428196541L705.4162176826037,290.70269235787913" id="svg_21"/><path fill="#ffffff" fill-opacity="1" stroke="#000000" stroke-opacity="1" stroke-width="11" stroke-dasharray="none" stroke-linejoin="miter" stroke-linecap="butt" stroke-dashoffset="" fill-rule="nonzero" opacity="1" marker-start="" marker-mid="" marker-end="" d="M700.0108123468603,321.51350277161595L573.5243274904673,422.59458255001556" id="svg_23"/><path fill="#ffffff" fill-opacity="1" stroke="#000000" stroke-opacity="1" stroke-width="11" stroke-dasharray="none" stroke-linejoin="miter" stroke-linecap="butt" stroke-dashoffset="" fill-rule="nonzero" opacity="1" marker-start="" marker-mid="" marker-end="" d="M540.5513549424332,433.94593375507645L314.6054119083635,357.1891779875217" id="svg_25"/></g></svg>